<svg data-v-423bf9ae="" xmlns="http://www.w3.org/2000/svg" viewBox="0 0 232.53152238419537 60" class="font"><!----><!----><!----><g data-v-423bf9ae="" id="347063c3-c72c-4718-bf6e-a63296f6d666" fill="white" transform="matrix(5.046257213415061,0,0,5.046257213415061,-1.8166540354079075,-19.62993893276225)"><path d="M2.51 12.77Q2.38 12.77 2.32 12.68Q2.25 12.59 2.25 12.46L2.25 12.46Q2.27 12.25 2.34 12.21Q2.41 12.17 2.60 12.17L2.60 12.17Q3.01 12.17 3.21 12.02Q3.40 11.87 3.45 11.66Q3.50 11.44 3.51 11.09L3.51 11.09L3.51 4.41L2.55 4.41Q2.07 4.42 1.81 4.61Q1.55 4.80 1.42 5.17Q1.29 5.54 1.19 6.23L1.19 6.23Q1.18 6.34 1.02 6.41Q0.87 6.48 0.70 6.48L0.70 6.48Q0.57 6.48 0.47 6.41Q0.36 6.33 0.36 6.20L0.36 6.20L0.41 4.23Q0.41 3.89 0.78 3.89L0.78 3.89L7.63 3.89Q7.99 3.89 7.99 4.23L7.99 4.23L8.05 6.20Q8.05 6.33 7.94 6.41Q7.83 6.48 7.70 6.48L7.70 6.48Q7.53 6.48 7.38 6.41Q7.24 6.34 7.22 6.23L7.22 6.23Q7.11 5.53 6.99 5.17Q6.86 4.80 6.59 4.61Q6.33 4.42 5.85 4.41L5.85 4.41L4.90 4.41L4.90 11.09Q4.91 11.44 4.96 11.66Q5.01 11.87 5.21 12.02Q5.40 12.17 5.81 12.17L5.81 12.17L5.89 12.17Q6.02 12.17 6.08 12.22Q6.15 12.26 6.16 12.46L6.16 12.46Q6.16 12.59 6.10 12.68Q6.03 12.77 5.91 12.77L5.91 12.77Q5.01 12.73 4.26 12.73L4.26 12.73Q3.42 12.73 2.51 12.77L2.51 12.77ZM11.33 12.89Q10.37 12.89 9.81 12.32Q9.25 11.75 9.25 10.81L9.25 10.81L9.25 8.22Q9.25 7.85 9.23 7.69Q9.21 7.52 9.06 7.39Q8.90 7.27 8.54 7.27L8.54 7.27Q8.37 7.27 8.29 7.22Q8.20 7.17 8.20 6.99L8.20 6.99Q8.20 6.90 8.26 6.83Q8.32 6.75 8.43 6.73L8.43 6.73Q9.31 6.61 9.94 6.37L9.94 6.37Q10.14 6.30 10.26 6.29L10.26 6.29L10.30 6.29Q10.53 6.29 10.53 6.55L10.53 6.55L10.53 10.79Q10.53 11.44 10.93 11.78Q11.34 12.12 11.87 12.12L11.87 12.12Q12.53 12.12 12.99 11.80Q13.45 11.48 13.61 11.16L13.61 11.16L13.61 8.22Q13.61 7.85 13.59 7.69Q13.57 7.52 13.41 7.39Q13.26 7.27 12.89 7.27L12.89 7.27Q12.73 7.27 12.64 7.22Q12.56 7.17 12.56 6.99L12.56 6.99Q12.56 6.90 12.61 6.83Q12.67 6.75 12.78 6.73L12.78 6.73Q13.66 6.61 14.29 6.37L14.29 6.37Q14.49 6.30 14.62 6.29L14.62 6.29L14.66 6.29Q14.88 6.29 14.88 6.55L14.88 6.55L14.88 11.40Q14.88 12.22 15.99 12.22L15.99 12.22Q16.23 12.22 16.23 12.49L16.23 12.49Q16.23 12.68 15.99 12.73L15.99 12.73L13.73 12.88Q13.64 12.88 13.62 12.82Q13.61 12.75 13.61 12.60L13.61 12.60L13.61 11.82L13.58 11.82Q13.17 12.19 12.92 12.40Q12.67 12.60 12.27 12.75Q11.87 12.89 11.33 12.89L11.33 12.89ZM17.00 12.77Q16.90 12.77 16.83 12.68Q16.77 12.60 16.77 12.49L16.77 12.49Q16.79 12.31 16.86 12.27Q16.93 12.24 17.11 12.24L17.11 12.24Q17.47 12.24 17.63 12.11Q17.78 11.98 17.80 11.82Q17.82 11.65 17.82 11.28L17.82 11.28L17.82 8.08Q17.82 7.71 17.80 7.55Q17.78 7.38 17.63 7.25Q17.47 7.13 17.11 7.13L17.11 7.13Q16.94 7.13 16.86 7.08Q16.77 7.03 16.77 6.85L16.77 6.85Q16.77 6.76 16.83 6.69Q16.88 6.61 17.00 6.59L17.00 6.59Q17.91 6.45 18.49 6.23L18.49 6.23Q18.73 6.16 18.82 6.15L18.82 6.15L18.86 6.15Q19.08 6.15 19.08 6.41L19.08 6.41L19.08 7.29L19.12 7.29Q19.53 6.92 19.78 6.71Q20.03 6.51 20.43 6.36Q20.83 6.22 21.38 6.22L21.38 6.22Q22.33 6.22 22.89 6.79Q23.45 7.36 23.45 8.30L23.45 8.30L23.45 11.28Q23.45 11.65 23.48 11.82Q23.51 11.98 23.66 12.11Q23.81 12.24 24.18 12.24L24.18 12.24L24.26 12.24Q24.37 12.24 24.43 12.28Q24.49 12.32 24.50 12.49L24.50 12.49Q24.50 12.60 24.44 12.68Q24.37 12.77 24.28 12.77L24.28 12.77Q23.46 12.73 22.81 12.73L22.81 12.73Q22.18 12.73 21.35 12.77L21.35 12.77Q21.25 12.77 21.19 12.68Q21.13 12.60 21.13 12.49L21.13 12.49Q21.14 12.31 21.20 12.27Q21.27 12.24 21.45 12.24L21.45 12.24Q21.81 12.24 21.97 12.11Q22.12 11.98 22.15 11.82Q22.18 11.65 22.18 11.28L22.18 11.28L22.18 8.32Q22.18 7.67 21.77 7.33Q21.36 6.99 20.83 6.99L20.83 6.99Q20.19 6.99 19.73 7.30Q19.26 7.62 19.10 7.95L19.10 7.95L19.10 11.28Q19.10 11.65 19.12 11.82Q19.15 11.98 19.31 12.11Q19.46 12.24 19.82 12.24L19.82 12.24L19.91 12.24Q20.02 12.24 20.08 12.28Q20.13 12.32 20.15 12.49L20.15 12.49Q20.15 12.60 20.09 12.68Q20.03 12.77 19.92 12.77L19.92 12.77Q19.11 12.73 18.45 12.73L18.45 12.73Q17.82 12.73 17.00 12.77L17.00 12.77ZM28.49 12.89Q27.44 12.89 26.70 12.45Q25.97 12.00 25.59 11.23Q25.21 10.46 25.21 9.52L25.21 9.52Q25.21 8.69 25.60 7.93Q25.98 7.17 26.70 6.69Q27.41 6.22 28.34 6.22L28.34 6.22Q29.58 6.22 30.25 6.85Q30.93 7.49 31.02 8.57L31.02 8.57Q31.02 9.03 30.77 9.20Q30.52 9.37 30.04 9.37L30.04 9.37L26.64 9.37Q26.64 10.67 27.18 11.43Q27.72 12.19 28.85 12.19L28.85 12.19Q29.46 12.19 29.88 11.94Q30.30 11.68 30.67 11.06L30.67 11.06Q30.74 10.99 30.81 10.99L30.81 10.99Q30.91 10.99 30.98 11.05L30.98 11.05Q31.12 11.13 31.12 11.30L31.12 11.30Q31.12 11.38 31.09 11.42L31.09 11.42Q30.66 12.12 29.99 12.51Q29.33 12.89 28.49 12.89L28.49 12.89ZM26.64 8.83L28.92 8.83Q29.64 8.83 29.68 8.25L29.68 8.25Q29.68 7.60 29.33 7.15Q28.98 6.71 28.34 6.71L28.34 6.71Q27.62 6.71 27.16 7.27Q26.70 7.84 26.64 8.83L26.64 8.83ZM32.40 12.77Q32.28 12.77 32.23 12.68Q32.17 12.60 32.17 12.49L32.17 12.49Q32.19 12.32 32.23 12.28Q32.28 12.24 32.41 12.24L32.41 12.24Q32.73 12.24 32.89 12.19Q33.04 12.15 33.16 12.02Q33.28 11.89 33.45 11.56L33.45 11.56L35.38 7.55Q35.55 7.18 35.55 7.04L35.55 7.04Q35.55 6.90 35.43 6.87Q35.31 6.83 35.01 6.83L35.01 6.83L34.43 6.83Q33.95 6.83 33.69 6.95Q33.43 7.07 33.28 7.41Q33.12 7.76 33.04 8.46L33.04 8.46Q33.03 8.57 32.91 8.62Q32.79 8.68 32.62 8.68L32.62 8.68Q32.51 8.68 32.41 8.61Q32.31 8.54 32.31 8.43L32.31 8.43L32.55 6.71Q32.58 6.51 32.66 6.45Q32.73 6.38 32.87 6.38L32.87 6.38L36.71 6.38Q36.95 6.38 37.51 6.36L37.51 6.36L37.84 6.34Q37.94 6.34 38.00 6.43Q38.07 6.51 38.07 6.62L38.07 6.62Q38.05 6.79 38.00 6.83Q37.94 6.87 37.83 6.87L37.83 6.87Q37.51 6.87 37.34 6.92Q37.18 6.96 37.06 7.09Q36.95 7.22 36.78 7.55L36.78 7.55L34.86 11.56Q34.69 11.91 34.69 12.07L34.69 12.07Q34.69 12.21 34.81 12.24Q34.93 12.28 35.22 12.28L35.22 12.28L36.01 12.28Q36.48 12.28 36.74 12.16Q37.00 12.04 37.16 11.70Q37.31 11.35 37.39 10.65L37.39 10.65Q37.41 10.54 37.53 10.49Q37.65 10.43 37.81 10.43L37.81 10.43Q37.93 10.43 38.02 10.50Q38.12 10.57 38.12 10.68L38.12 10.68L37.88 12.40Q37.86 12.60 37.78 12.66Q37.70 12.73 37.56 12.73L37.56 12.73L33.52 12.73Q33.29 12.73 32.70 12.75L32.70 12.75L32.40 12.77ZM40.04 15.78Q39.44 15.78 38.97 15.39Q38.50 15.01 38.50 14.48L38.50 14.48Q38.50 13.85 38.85 13.67Q39.20 13.50 39.40 13.50L39.40 13.50Q39.63 13.50 39.79 13.59Q39.94 13.69 39.94 13.78L39.94 13.78Q39.94 13.80 39.83 13.92Q39.72 14.03 39.72 14.31L39.72 14.31Q39.72 14.59 39.89 14.80Q40.07 15.01 40.39 15.01L40.39 15.01Q41.27 15.01 42.11 13.20L42.11 13.20Q42.17 13.01 42.17 12.91L42.17 12.91Q42.17 12.77 42.10 12.56L42.10 12.56Q41.82 11.93 41.16 10.22L41.16 10.22Q40.59 8.69 40.22 7.90L40.22 7.90Q39.98 7.35 39.77 7.15Q39.56 6.94 39.16 6.89L39.16 6.89Q39.12 6.87 39.00 6.86Q38.89 6.85 38.86 6.79Q38.84 6.73 38.84 6.59L38.84 6.59Q38.84 6.43 38.93 6.38Q39.02 6.34 39.15 6.34Q39.28 6.33 39.33 6.33L39.33 6.33Q40.18 6.29 40.67 6.57Q41.16 6.86 41.48 7.57L41.48 7.57Q41.79 8.29 42.03 8.93L42.03 8.93Q42.59 10.44 42.94 11.14L42.94 11.14L42.98 11.14L44.35 7.48Q44.42 7.24 44.42 7.14L44.42 7.14Q44.42 6.99 44.28 6.93Q44.14 6.87 43.82 6.87L43.82 6.87L43.74 6.87Q43.62 6.87 43.57 6.83Q43.53 6.79 43.51 6.62L43.51 6.62Q43.51 6.52 43.56 6.43Q43.61 6.34 43.71 6.34L43.71 6.34Q44.51 6.38 45.07 6.38L45.07 6.38Q45.29 6.38 45.93 6.36L45.93 6.36L46.23 6.34Q46.33 6.34 46.38 6.43Q46.44 6.52 46.44 6.62L46.44 6.62Q46.42 6.79 46.37 6.83Q46.31 6.87 46.20 6.87L46.20 6.87Q45.68 6.87 45.40 7.04Q45.12 7.21 44.93 7.70L44.93 7.70Q44.60 8.50 43.89 10.26Q43.18 12.03 42.83 12.87L42.83 12.87Q42.32 14.07 41.65 14.92Q40.98 15.78 40.04 15.78L40.04 15.78Z"></path></g><!----><!----></svg>